<svg id="Capa_1" enable-background="new 0 0 502 502" height="512" viewBox="0 0 502 502" width="512" xmlns="http://www.w3.org/2000/svg" xmlns:xlink="http://www.w3.org/1999/xlink"><linearGradient id="SVGID_1_" gradientUnits="userSpaceOnUse" x1="261.597" x2="261.597" y1="521.273" y2="-43.959"><stop offset="0" stop-color="#68d0e8"/><stop offset="1" stop-color="#a7e7f5"/></linearGradient><linearGradient id="lg1"><stop offset="0" stop-color="#43b36b"/><stop offset=".196" stop-color="#46b570"/><stop offset=".4433" stop-color="#4dbc80"/><stop offset=".7181" stop-color="#5ac79a"/><stop offset="1" stop-color="#6ad6bc"/></linearGradient><linearGradient id="SVGID_2_" gradientUnits="userSpaceOnUse" x1="100.769" x2="100.769" xlink:href="#lg1" y1="508.786" y2="50.524"/><linearGradient id="SVGID_3_" gradientUnits="userSpaceOnUse" x1="382.886" x2="382.886" xlink:href="#lg1" y1="509.792" y2="96.459"/><linearGradient id="SVGID_4_" gradientUnits="userSpaceOnUse" x1="410.921" x2="414.799" y1="364.982" y2="268.037"><stop offset="0" stop-color="#f4d84a"/><stop offset="1" stop-color="#f9ea9d"/></linearGradient><g><path d="m361.666 476.331c165.334-135.553 118.113-328.732 62.447-407.08-45.036-42.908-105.998-69.251-173.113-69.251-54.278 0-104.53 17.232-145.59 46.52-92.832 125.818-70.167 347.574 37.988 431.297 32.613 15.499 69.091 24.183 107.602 24.183 39.722 0 77.281-9.241 110.666-25.669z" fill="url(#SVGID_1_)"/><path d="m330.048 385.949c-58.782 28.908-125.6 42.525-192.329 42.492v35.003c74.52.037 149.006-15.832 214.149-49.298z" fill="#15c5d9"/><path d="m0 251c0 100.113 58.618 186.525 143.398 226.817 6.087-29.396 24.727-61.944 40.69-77.907 19.384-19.384 31.984-90.899-14.538-90.899s-55.244-24.105-25.199-24.105 62.029-54.605-10.321-54.605-48.716-55.375-29.775-74.316c21.93-21.93 56.573-7.097 56.573-50.711 0-30.962-25.825-50.198-55.417-58.754-63.806 45.51-105.411 120.135-105.411 204.48z" fill="url(#SVGID_2_)"/><g><path d="m163.437 427.773c-31.636 1.664-63.486.211-94.681-4.204 14.236 15.027 30.305 28.299 47.857 39.447 10.216.415 20.447.532 30.671.35 4.025-12.336 9.764-24.659 16.153-35.593z" fill="#00a663"/></g><path d="m424.113 69.251c-13.661 8.308-30.066 21.249-55.123 21.249-46.894 0-37.233 71.814-73.344 71.814s-53.066 73.316 12.667 73.316c78.158 0 89.101-38.299 114.269-38.299s55.91 52.183 29.272 52.183c-26.639 0-55.535 41.134-94.928 41.134s-64.562 39.09-64.562 79.579c0 47.371 45.646 60.599 69.302 106.104 83.124-40.903 140.334-126.43 140.334-225.331 0-71.508-29.904-136.032-77.887-181.749z" fill="url(#SVGID_3_)"/><path d="m30.208 416.535c-6.197-1.39-10.094-7.541-8.704-13.738 1.391-6.198 7.542-10.093 13.739-8.703 128.103 28.742 276.384 4.301 370.006-89.321 4.49-4.492 11.771-4.492 16.264 0 4.491 4.491 4.491 11.772 0 16.264-99.297 99.296-255.406 125.989-391.305 95.498z" fill="#efc42f"/><circle cx="413" cy="313" fill="url(#SVGID_4_)" r="48"/><g><ellipse cx="163.115" cy="177.584" fill="#ea9cc5" rx="14.936" ry="12.003"/><ellipse cx="338.886" cy="177.584" fill="#ea9cc5" rx="14.936" ry="12.003"/><circle cx="188.721" cy="147.966" fill="#fff" r="29.618"/><circle cx="313.279" cy="147.966" fill="#fff" r="29.618"/><g fill="#353544"><g><circle cx="188.721" cy="147.966" r="17.652"/><circle cx="313.279" cy="147.966" r="17.652"/></g><path d="m251 178.525c-5.248 0-10.495-1.984-14.776-5.954-2.025-1.877-2.145-5.041-.267-7.065 1.878-2.025 5.041-2.145 7.066-.267 4.697 4.354 11.256 4.354 15.954 0 2.023-1.877 5.188-1.758 7.065.267 1.878 2.024 1.759 5.188-.267 7.065-4.28 3.97-9.528 5.954-14.775 5.954z"/></g></g><path d="m341.364 380.119c-13.569 7.268-27.609 13.688-42.02 19.273 5.488 10.586 13.693 19.493 22.717 28.585 12.216-5.095 24.169-10.762 35.81-16.999 8.947-4.794 11.88-16.225 6.428-24.788-4.897-7.691-14.899-10.376-22.935-6.071z" fill="#00a663"/><g><path d="m439.805 146.004c-3.371 0-6.662-1.704-8.546-4.792-8.223-13.476-17.987-26.057-29.023-37.396-3.853-3.958-3.767-10.289.191-14.141s10.29-3.768 14.141.191c12.077 12.409 22.765 26.179 31.764 40.928 2.877 4.715 1.387 10.869-3.327 13.745-1.627.992-3.426 1.465-5.2 1.465z" fill="#a1f5d0"/><path d="m377.232 79.537c-1.972 0-3.964-.582-5.705-1.794-2.592-1.805-5.242-3.563-7.879-5.229-4.669-2.95-6.063-9.127-3.112-13.796 2.95-4.668 9.127-6.063 13.796-3.112 2.887 1.824 5.788 3.75 8.623 5.724 4.532 3.156 5.648 9.389 2.493 13.921-1.943 2.79-5.054 4.286-8.216 4.286z" fill="#c9f5fa"/></g></g></svg>